HIERARCHY
ROOT Hips
{
	OFFSET 0.000000 0.000000 0.000000 
	CHANNELS 6 Xposition Yposition Zposition Yrotation Zrotation Xrotation 
	JOINT Lumbar
	{
		OFFSET 0.000000 0.000000 0.000000 
		CHANNELS 3 Zrotation Xrotation Yrotation
		JOINT Neck
		{
			OFFSET 0.000000 0.445665 0.000000 
			CHANNELS 3 Zrotation Xrotation Yrotation
			End Site
			{
				OFFSET 0.000000 0.227535 0.000000 
			}
		}
		JOINT RightShoulder
		{
			OFFSET 0.019635 0.377685 0.194865 
			CHANNELS 3 Zrotation Xrotation Yrotation
			JOINT RightElbow
			{
				OFFSET 0.000000 -0.243375 0.000000 
				CHANNELS 2 Zrotation Yrotation
				JOINT RightWrist
				{
					OFFSET 0.000000 -0.264825 0.000000 
					CHANNELS 2 Zrotation Xrotation
					End Site
					{
						OFFSET 0.006600 -0.176220 0.000990 
					}
				}
			}
		}
		JOINT LeftShoulder
		{
			OFFSET 0.019635 0.377685 -0.194865 
			CHANNELS 3 Zrotation Xrotation Yrotation
			JOINT LeftElbow
			{
				OFFSET 0.000000 -0.243375 0.000000 
				CHANNELS 2 Zrotation Yrotation
				JOINT LeftWrist
				{
					OFFSET 0.000000 -0.264825 0.000000 
					CHANNELS 2 Zrotation Xrotation
					End Site
					{
						OFFSET 0.006600 -0.176220 -0.000990 
					}
				}
			}
		}
	}
	JOINT RightHip
	{
		OFFSET 0.052140 -0.069960 0.075570 
		CHANNELS 3 Zrotation Xrotation Yrotation
		JOINT RightKnee
		{
			OFFSET 0.000000 -0.402270 0.000000 
			CHANNELS 1 Zrotation
			JOINT RightAnkle
			{
				OFFSET 0.000000 -0.404085 0.000000 
				CHANNELS 3 Zrotation Xrotation Yrotation
				End Site
				{
					OFFSET 0.204105 -0.089430 0.008415 
				}
			}
		}
	}
	JOINT LeftHip
	{
		OFFSET 0.052140 -0.069960 -0.075570 
		CHANNELS 3 Zrotation Xrotation Yrotation
		JOINT LeftKnee
		{
			OFFSET 0.000000 -0.402270 0.000000 
			CHANNELS 1 Zrotation
			JOINT LeftAnkle
			{
				OFFSET 0.000000 -0.404085 0.000000 
				CHANNELS 3 Zrotation Xrotation Yrotation
				End Site
				{
					OFFSET 0.204105 -0.089430 -0.008415 
				}
			}
		}
	}
}
MOTION
Frames: 26
Frame Time: 0.02
-0 0.95578 -0 176.89779 0 -4.23527 6.95775 5.29575 1.92333 -31.97191 0.16291 1.4703 -8.10482 -69.15733 -88.83901 22.3098 45.11356 -35.6518 0.65181 28.14287 72.7857 62.51479 20.13573 -69.05738 -24.86069 1.82953 -0.99041 6.27823 -1.55438 -11.33266 2.55314 -5.62472 -11.93916 -2.03416 2.47447 3.69056 -8.95901 6.82372 7.00367 10.8789
0.00043 0.95585 0.00036 176.94054 0 -4.23989 6.806 5.29249 1.90235 -31.93749 0.16231 1.45461 -8.21562 -69.13045 -88.83361 22.29348 45.0295 -35.60653 0.67959 28.05358 72.72474 62.82243 19.94318 -69.04472 -24.88039 1.88557 -1.0752 6.25912 -1.68325 -11.13121 2.48989 -5.58975 -11.84501 -2.05446 2.46845 3.73411 -8.86105 6.79065 6.96904 10.78479
0.00086 0.95592 0.00071 176.98266 0 -4.24447 6.65458 5.28913 1.88173 -31.90317 0.16176 1.43919 -8.32565 -69.10399 -88.82824 22.27707 44.94611 -35.56158 0.70713 27.96431 72.66404 63.12831 19.75201 -69.03224 -24.89966 1.94111 -1.15935 6.23999 -1.8112 -10.93096 2.42699 -5.555 -11.75133 -2.07469 2.46231 3.77752 -8.76346 6.75769 6.93462 10.6914
0.00129 0.95599 0.00107 177.02239 0 -4.24906 6.50333 5.28558 1.86238 -31.86869 0.16167 1.42491 -8.43551 -69.07912 -88.82301 22.26029 44.86339 -35.51828 0.73398 27.87312 72.60331 63.4317 19.56442 -69.0209 -24.91714 1.99526 -1.24132 6.22091 -1.93593 -10.73418 2.36479 -5.52079 -11.65919 -2.09523 2.45581 3.82017 -8.66568 6.72469 6.9008 10.60085
0.00172 0.95606 0.00142 177.07443 0 -4.25373 6.35157 5.28337 1.83636 -31.83478 0.15944 1.40486 -8.54848 -69.04607 -88.81715 22.24569 44.77569 -35.46717 0.76446 27.79069 72.54213 63.75016 19.35778 -69.0042 -24.94383 2.05684 -1.33433 6.20197 -2.07682 -10.51981 2.2988 -5.48374 -11.55962 -2.1146 2.45146 3.8661 -8.56805 6.69172 6.86391 10.49627
0.00216 0.95613 0.00179 177.10059 0 -4.25812 6.20079 5.27811 1.82442 -31.79988 0.16154 1.39686 -8.65327 -69.03015 -88.81255 22.22635 44.6996 -35.43199 0.78724 27.69076 72.48239 64.03514 19.19172 -68.99841 -24.95118 2.10262 -1.40422 6.18249 -2.18399 -10.34228 2.24094 -5.45274 -11.47538 -2.1361 2.44239 3.90557 -8.47075 6.65887 6.83348 10.42078
0.00263 0.95617 0.00219 177.05164 0 -4.26287 6.05065 5.26568 1.85279 -31.75966 0.17778 1.42467 -8.74995 -69.06448 -88.81202 22.19412 44.64642 -35.44682 0.78847 27.53027 72.42155 64.24292 19.13652 -69.02757 -24.9016 2.10471 -1.40716 6.16326 -2.19221 -10.2701 2.20412 -5.43805 -11.43702 -2.167 2.421 3.92286 -8.36721 6.62419 6.82151 10.43287
0.00312 0.95621 0.00262 176.9772 0 -4.26718 5.90173 5.24998 1.89514 -31.71888 0.19797 1.46419 -8.83567 -69.11559 -88.81266 22.15703 44.60669 -35.47663 0.78193 27.35428 72.363 64.41422 19.12245 -69.06694 -24.83292 2.09084 -1.38734 6.14318 -2.16731 -10.23438 2.17567 -5.42949 -11.4136 -2.19941 2.39467 3.93414 -8.26525 6.59002 6.816 10.4733
0.00359 0.95624 0.00304 176.91668 0 -4.2709 5.75338 5.23485 1.93019 -31.67997 0.21499 1.49677 -8.91731 -69.1572 -88.81239 22.12205 44.56661 -35.49573 0.77917 27.193 72.30664 64.59268 19.09025 -69.09851 -24.77543 2.08433 -1.37994 6.12233 -2.16159 -10.17952 2.14431 -5.41838 -11.3808 -2.22888 2.37012 3.95141 -8.16701 6.55697 6.80702 10.49569
0.0041 0.95628 0.00345 176.8462 0 -4.27778 5.60024 5.22332 1.96922 -31.63417 0.23792 1.53627 -9.03783 -69.20682 -88.81371 22.08759 44.50186 -35.53139 0.77552 26.99896 72.23676 64.81128 19.05564 -69.14329 -24.70803 2.07745 -1.36371 6.1063 -2.13917 -10.13549 2.10937 -5.4064 -11.35832 -2.26794 2.34756 3.95619 -8.04984 6.51818 6.80004 10.53866
0.00454 0.95632 0.00389 176.79053 0 -4.27817 5.45747 5.20385 2.00327 -31.60271 0.24936 1.56402 -9.07394 -69.24361 -88.812 22.05077 44.49215 -35.536 0.7717 26.86999 72.19544 64.93707 19.03588 -69.16314 -24.65589 2.06747 -1.36053 6.0801 -2.14278 -10.07762 2.08365 -5.39755 -11.31865 -2.2873 2.31962 3.98399 -7.97274 6.4915 6.79077 10.54703
0.00485 0.95634 0.0044 176.78087 0 -4.25922 5.34194 5.16023 2.02027 -31.60991 0.22905 1.55768 -8.88661 -69.24185 -88.80187 22.00971 44.62728 -35.45216 0.77084 26.9199 72.23351 64.82066 19.04635 -69.11052 -24.65781 2.05333 -1.39835 6.02532 -2.2339 -9.97224 2.08332 -5.39695 -11.22118 -2.25261 2.2787 4.09057 -8.00339 6.49784 6.77058 10.43953
0.0051 0.95636 0.00494 176.78717 0 -4.23405 5.23701 5.10928 2.03177 -31.63173 0.19691 1.53894 -8.61333 -69.22644 -88.78887 21.96625 44.81814 -35.33636 0.76978 27.03655 72.29997 64.61138 19.07045 -69.03278 -24.6745 2.03652 -1.4501 5.96044 -2.35097 -9.85196 2.09167 -5.39913 -11.10713 -2.19801 2.23239 4.21814 -8.07466 6.51642 6.74839 10.29854
0.00537 0.95638 0.00549 176.78694 0 -4.21276 5.12796 5.06363 2.04571 -31.64766 0.16951 1.52503 -8.37492 -69.21658 -88.77665 21.92312 44.98587 -35.23464 0.76785 27.1258 72.35277 64.44103 19.08885 -68.96714 -24.67954 2.0206 -1.49599 5.90072 -2.4512 -9.73847 2.09466 -5.39927 -11.00504 -2.15193 2.18818 4.32685 -8.12918 6.5296 6.72915 10.18191
0.00568 0.9564 0.00597 176.78287 0 -4.18705 5.01601 5.00955 2.06034 -31.66063 0.14474 1.51471 -8.15415 -69.20988 -88.76555 21.88293 45.14438 -35.13548 0.76982 27.20268 72.4091 64.2824 19.10677 -68.89852 -24.7043 2.00549 -1.53953 5.83874 -2.57152 -9.62529 2.10364 -5.40272 -10.88479 -2.10771 2.14541 4.47396 -8.1771 6.54208 6.70165 10.02849
0.00589 0.95642 0.00659 176.79078 0 -4.16905 4.91257 4.97134 2.07207 -31.68295 0.11186 1.49408 -7.87596 -69.19333 -88.75287 21.83628 45.3357 -35.02298 0.76359 27.32072 72.46446 64.0788 19.12815 -68.83058 -24.69233 1.98829 -1.59103 5.77885 -2.65669 -9.50859 2.10245 -5.4001 -10.79822 -2.05539 2.09825 4.5471 -8.24766 6.55896 6.69062 9.94236
0.00587 0.95642 0.00755 176.82943 0 -4.1742 4.83035 4.97887 2.07683 -31.72992 0.05749 1.44577 -7.46466 -69.15127 -88.72362 21.77088 45.59876 -34.88352 0.73577 27.54169 72.513 63.76507 19.15777 -68.76565 -24.57025 1.96584 -1.66579 5.72921 -2.63785 -9.3761 2.06812 -5.37778 -10.8087 -1.98116 2.04175 4.4024 -8.37716 6.58484 6.72707 10.05877
0.00575 0.95642 0.00865 176.87949 0 -4.18729 4.75626 5.00265 2.0788 -31.78536 -0.00422 1.38789 -6.99832 -69.10003 -88.69498 21.69939 45.89344 -34.73141 0.69957 27.80072 72.55902 63.41111 19.18992 -68.70305 -24.41174 1.9415 -1.74731 5.68164 -2.58308 -9.24232 2.02379 -5.34963 -10.85359 -1.9003 1.98076 4.18402 -8.52687 6.6148 6.77986 10.24235
0.00568 0.95641 0.0097 176.92334 0 -4.19652 4.67824 5.01893 2.08222 -31.83528 -0.06133 1.3358 -6.55367 -69.05394 -88.6749 21.63171 46.17752 -34.58347 0.66655 28.03881 72.6044 63.08139 19.21922 -68.6428 -24.2733 1.91823 -1.82281 5.63186 -2.54524 -9.11521 1.9859 -5.32562 -10.88263 -1.82533 1.92091 4.00509 -8.66314 6.64299 6.82411 10.38943
0.00563 0.95642 0.01069 176.97176 0 -4.20655 4.60162 5.03537 2.08487 -31.89263 -0.12439 1.27717 -6.11786 -69.00309 -88.61869 21.55953 46.44927 -34.44051 0.63611 28.29494 72.65846 62.72315 19.25575 -68.56776 -24.1205 1.89399 -1.91129 5.58716 -2.50551 -8.96152 1.9402 -5.29545 -10.91193 -1.73746 1.86473 3.80218 -8.81875 6.67116 6.87294 10.56051
0.00549 0.9564 0.01185 177.01355 0 -4.21697 4.52385 5.0555 2.08832 -31.9365 -0.17642 1.23008 -5.65445 -68.96033 -88.63631 21.49532 46.75144 -34.28532 0.5984 28.52124 72.69327 62.4161 19.27821 -68.5238 -23.98879 1.87133 -1.97408 5.53241 -2.46117 -8.86356 1.90842 -5.27666 -10.94918 -1.67523 1.79983 3.63088 -8.9384 6.70032 6.91619 10.69807
0.00512 0.95636 0.01347 177.03096 0 -4.22565 4.4409 5.08126 2.09633 -31.93953 -0.19804 1.2169 -5.10457 -68.94067 -88.87146 21.45464 47.14782 -34.09287 0.54181 28.65937 72.67688 62.25926 19.25623 -68.57035 -23.92401 1.85373 -1.96451 5.45006 -2.40985 -8.91689 1.91655 -5.29113 -10.99932 -1.68478 1.71265 3.57016 -8.95323 6.72997 6.93957 10.72551
0.00466 0.9563 0.01528 177.04191 0 -4.23463 4.35643 5.11024 2.1049 -31.92895 -0.20785 1.21579 -4.53347 -68.92975 -89.17839 21.42225 47.57054 -33.88966 0.47842 28.76526 72.64067 62.15563 19.22096 -68.64729 -23.88166 1.83779 -1.92842 5.35743 -2.35548 -9.02766 1.93935 -5.31724 -11.0567 -1.72057 1.61676 3.543 -8.93114 6.76078 6.9568 10.71689
0.00424 0.95625 0.01702 177.05775 0 -4.24411 4.27264 5.13821 2.11221 -31.92549 -0.22189 1.20937 -3.98827 -68.91592 -89.44337 21.38603 47.96859 -33.69619 0.41858 28.8832 72.61271 62.0292 19.19481 -68.70691 -23.82912 1.82089 -1.90472 5.2691 -2.30448 -9.11324 1.95578 -5.33762 -11.11099 -1.74489 1.52439 3.49657 -8.926 6.79167 6.9773 10.72623
0.00385 0.9562 0.01868 177.06537 0 -4.25125 4.18931 5.16507 2.12388 -31.91825 -0.24123 1.20176 -3.37323 -68.8975 -89.74755 21.34973 48.41959 -33.48291 0.35616 29.01321 72.58849 61.89689 19.15528 -68.78116 -23.77536 1.80464 -1.88122 5.18243 -2.24422 -9.19207 1.96984 -5.35933 -11.16468 -1.76711 1.43366 3.46337 -8.92053 6.81963 6.99671 10.73293
0.00335 0.95614 0.02054 177.08888 0 -4.26314 4.1044 5.1945 2.12638 -31.9157 -0.24632 1.19973 -2.89842 -68.89057 -89.98739 21.31583 48.76841 -33.30709 0.29806 29.11026 72.55102 61.78824 19.14102 -68.83242 -23.72985 1.78763 -1.84917 5.08978 -2.20256 -9.30218 1.99341 -5.38152 -11.22207 -1.79993 1.33757 3.41301 -8.90713 6.85454 7.01628 10.7336
